# xmcd
#
# Track frame offsets:
# 150
# 13918
# 34865
# 50997
# 57655
# 74321
# 84086
# 102016
# 115604
# 129742
# 149931
#
# Disc length: 2118 seconds
#
#
# Revision: 0
# Processed by: cddbd v1.5.2PL0 Copyright (c) Steve Scherf et al.
# Submitted via: FreeRIP 2.951 
#
DISCID=a408440b
DTITLE=Jiri Zmozek - Darek k padesatinam
DYEAR=2008
DGENRE=Oldies
TTITLE0=Svym laskam
TTITLE1=Pane kapelniku, hrajte mi tu mou
TTITLE2=Sic je nam padesat
TTITLE3=Na pankraci
TTITLE4=Nebudem se zeniti
TTITLE5=Uz je nam padesat
TTITLE6=Jeste jednou padesat
TTITLE7=Kunraticky mlyn
TTITLE8=Jakepak stari
TTITLE9=Pomalu
TTITLE10=I kdyz je nam padesat
EXTD=
EXTT0=
EXTT1=
EXTT2=
EXTT3=
EXTT4=
EXTT5=
EXTT6=
EXTT7=
EXTT8=
EXTT9=
EXTT10=
PLAYORDER=
